<svg width="1344" height="292" viewBox="0 0 1344 292" fill="none" xmlns="http://www.w3.org/2000/svg">
<path d="M1040.21 101.343H935.815L798.618 216.086V285.87H1041.42V212.134H910.745L1040.21 101.343Z" fill="#EBEBE5"/>
<path d="M1202.73 0C1106.61 0 1061.47 65.3697 1061.47 146C1061.47 226.63 1106.61 292 1202.73 292C1298.85 292 1344 226.63 1344 146C1344 65.3697 1298.85 0 1202.73 0ZM1202.95 220.442C1155.25 220.442 1141.8 187.31 1141.8 146.433C1141.8 105.555 1155.25 72.423 1202.95 72.423C1250.65 72.423 1264.1 105.555 1264.1 146.433C1264.1 187.31 1250.65 220.442 1202.95 220.442Z" fill="#EBEBE5"/>
<path d="M329.239 164.463L354.453 82.6641L372.854 142.971H452.609L404.909 6.13021H305.959L207.99 285.87H291.8L309.74 227.698H398.689L416.441 285.87H502.417L460.1 164.463H329.239Z" fill="#EBEBE5"/>
<path d="M80.3467 6.13021H0V190.657H80.3467V6.13021Z" fill="#EBEBE5"/>
<path d="M602.493 205.312H522.146V285.87H602.493V205.312Z" fill="#EBEBE5"/>
<path d="M774.487 6.13021H694.14V88.5924H774.487V6.13021Z" fill="#EBEBE5"/>
<path d="M0 212.134V285.87H192.821V212.134H0Z" fill="#EBEBE5"/>
<path d="M602.478 110.084V6.13021H522.146V183.82H694.14V285.87H774.487V110.084H602.478Z" fill="#EBEBE5"/>
<path d="M1048.95 6.13021H798.618V79.8658H1048.95V6.13021Z" fill="#EBEBE5"/>
</svg>
