<svg xmlns="http://www.w3.org/2000/svg" viewBox="0 0 512 512" role="img" aria-labelledby="title desc">
  <title id="title">Dima Dima Dima single-color profile D mark</title>
  <desc id="desc">A single-color capital D containing a right-facing profile cutout and beard.</desc>
  <g fill="#0B5A58">
    <path fill-rule="evenodd" d="M80 54h159c113 0 193 86 193 202S352 458 239 458H80V54ZM243 128c27 0 53 13 66 34 12 19 12 45 15 66 2 13-4 20-1 29 3 10 14 23 27 31 7 4 9 11 6 16-3 6-9 9-17 8-6 0-10 2-13 6 5 2 8 7 7 12-1 5-6 9-9 13-2 4-1 9 2 13 4 5 6 10 3 15-3 6-5 11-1 17 4 8 2 17-4 23-8 8-19 12-31 12-12-1-23-4-32-1-10 4-14 15-15 36h-43V268c1-26 8-49 16-70 7-17 5-31 5-47-1-15 5-23 17-23Z"/>
    <path d="M215 286c15 20 35 36 61 45 10 4 20 0 26-8 7-8 16-11 25-10 1 6-2 10-8 13-7 4-10 9-8 15 2 7 7 12 5 18-2 6-4 10-1 16 5 8 3 17-3 23-7 8-18 11-28 9-16-4-32-11-45-21-14-11-22-25-25-41-2-18 0-40 1-59Z"/>
  </g>
</svg>
